<svg width="233" height="221" fill="none" xmlns="http://www.w3.org/2000/svg"><circle cx="6.5" cy="6.5" r="6.5" fill="#6D4AE7"/><circle cx="50.5" cy="6.5" r="6.5" fill="#6D4AE7"/><circle cx="94.5" cy="6.5" r="6.5" fill="#FED403"/><circle cx="138.5" cy="6.5" r="6.5" fill="#6D4AE7"/><circle cx="182.5" cy="6.5" r="6.5" fill="#6D4AE7"/><circle cx="226.5" cy="6.5" r="6.5" fill="#6D4AE7"/><circle cx="6.5" cy="47.5" r="6.5" fill="#6D4AE7"/><circle cx="50.5" cy="47.5" r="6.5" fill="#6D4AE7"/><circle cx="94.5" cy="47.5" r="6.5" fill="#6D4BDE"/><circle cx="138.5" cy="47.5" r="6.5" fill="#6D4AE7"/><circle cx="182.5" cy="47.5" r="6.5" fill="#6D4AE7"/><circle cx="226.5" cy="47.5" r="6.5" fill="#6D4AE7"/><circle cx="6.5" cy="88.5" r="6.5" fill="#6D4AE7"/><circle cx="50.5" cy="88.5" r="6.5" fill="#01BEDE"/><circle cx="94.5" cy="88.5" r="6.5" fill="#6D4BDE"/><circle cx="138.5" cy="88.5" r="6.5" fill="#6D4AE7"/><circle cx="182.5" cy="88.5" r="6.5" fill="#6D4AE7"/><circle cx="226.5" cy="88.5" r="6.5" fill="#6D4AE7"/><circle cx="6.5" cy="130.5" r="6.5" fill="#6D4AE7"/><circle cx="50.5" cy="130.5" r="6.5" fill="#6D4AE7"/><circle cx="94.5" cy="130.5" r="6.5" fill="#6D4BDE"/><circle cx="138.5" cy="130.5" r="6.5" fill="#6D4AE7"/><circle cx="182.5" cy="130.5" r="6.5" fill="#6D4AE7"/><circle cx="226.5" cy="130.5" r="6.5" fill="#01BEDE"/><circle cx="6.5" cy="172.5" r="6.5" fill="#6D4AE7"/><circle cx="50.5" cy="172.5" r="6.5" fill="#6D4AE7"/><circle cx="94.5" cy="172.5" r="6.5" fill="#6D4BDE"/><circle cx="138.5" cy="172.5" r="6.5" fill="#6D4AE7"/><circle cx="182.5" cy="172.5" r="6.5" fill="#6D4AE7"/><circle cx="226.5" cy="172.5" r="6.5" fill="#6D4AE7"/><circle cx="6.5" cy="214.5" r="6.5" fill="#6D4AE7"/><circle cx="50.5" cy="214.5" r="6.5" fill="#6D4AE7"/><circle cx="94.5" cy="214.5" r="6.5" fill="#6D4BDE"/><circle cx="138.5" cy="214.5" r="6.5" fill="#01BEDE"/><circle cx="182.5" cy="214.5" r="6.5" fill="#6D4AE7"/><circle cx="226.5" cy="214.5" r="6.5" fill="#6D4AE7"/></svg>