<svg width="30" height="243" fill="none" xmlns="http://www.w3.org/2000/svg"><path fill="#01BEDE" d="M.722 41.334 28.675 20.27l1.203 1.598L1.926 42.93z"/><path fill="#01BEDE" d="m1.896.306 28.008 20.989-1.2 1.6L.697 1.908zM.722 81.334 28.675 60.27l1.203 1.598L1.926 82.93z"/><path fill="#01BEDE" d="m1.896 40.306 28.008 20.989-1.2 1.6L.697 41.908zM.722 121.333l27.952-21.063 1.204 1.597L1.926 122.93z"/><path fill="#01BEDE" d="m1.896 80.306 28.008 20.989-1.2 1.6L.697 81.907zM.722 161.333l27.952-21.063 1.204 1.597L1.926 162.93z"/><path fill="#01BEDE" d="m1.896 120.306 28.008 20.99-1.2 1.6-28.007-20.99zM.722 201.333l27.952-21.063 1.204 1.597L1.926 202.93z"/><path fill="#01BEDE" d="m1.896 160.306 28.008 20.99-1.2 1.6-28.007-20.99zM.722 241.333l27.952-21.063 1.204 1.597L1.926 242.93z"/><path fill="#01BEDE" d="m1.896 200.306 28.008 20.99-1.2 1.6-28.007-20.99z"/></svg>